<svg width="200" height="200" xmlns="http://www.w3.org/2000/svg">
  <defs>
    <linearGradient id="goldGradient" x1="0%" y1="0%" x2="100%" y2="100%">
      <stop offset="0%" stop-color="#ffdb4d" />
      <stop offset="100%" stop-color="#e6c400" />
    </linearGradient>
    <filter id="shadow" x="-20%" y="-20%" width="140%" height="140%">
      <feDropShadow dx="0" dy="0" stdDeviation="5" flood-color="#000" flood-opacity="0.3" />
    </filter>
  </defs>
  
  <!-- Outer ring -->
  <circle cx="100" cy="100" r="90" fill="none" stroke="url(#goldGradient)" stroke-width="8" filter="url(#shadow)" />
  
  <!-- Inner circle -->
  <circle cx="100" cy="100" r="75" fill="url(#goldGradient)" stroke="none" filter="url(#shadow)" />
  
  <!-- Border pattern -->
  <path d="M100,15 L105,25 L115,25 L107,32 L110,42 L100,35 L90,42 L93,32 L85,25 L95,25 Z" fill="white" opacity="0.9" />
  <path d="M185,100 L175,105 L175,115 L168,107 L158,110 L165,100 L158,90 L168,93 L175,85 L175,95 Z" fill="white" opacity="0.9" />
  <path d="M100,185 L95,175 L85,175 L93,168 L90,158 L100,165 L110,158 L107,168 L115,175 L105,175 Z" fill="white" opacity="0.9" />
  <path d="M15,100 L25,95 L25,85 L32,93 L42,90 L35,100 L42,110 L32,107 L25,115 L25,105 Z" fill="white" opacity="0.9" />
  
  <!-- Text -->
  <text x="100" y="80" text-anchor="middle" fill="white" font-family="Arial, sans-serif" font-weight="bold" font-size="20">GARANTIA</text>
  <text x="100" y="105" text-anchor="middle" fill="white" font-family="Arial, sans-serif" font-weight="bold" font-size="20">100%</text>
  <text x="100" y="130" text-anchor="middle" fill="white" font-family="Arial, sans-serif" font-weight="bold" font-size="18">SATISFAÇÃO</text>
</svg> 