<svg width="100" height="100" xmlns="http://www.w3.org/2000/svg">
  <defs>
    <pattern id="crypto-pattern" patternUnits="userSpaceOnUse" width="100" height="100">
      <circle cx="10" cy="10" r="2" fill="#ffdb4d" opacity="0.2" />
      <circle cx="30" cy="10" r="2" fill="#ffdb4d" opacity="0.2" />
      <circle cx="50" cy="10" r="2" fill="#ffdb4d" opacity="0.2" />
      <circle cx="70" cy="10" r="2" fill="#ffdb4d" opacity="0.2" />
      <circle cx="90" cy="10" r="2" fill="#ffdb4d" opacity="0.2" />
      
      <circle cx="10" cy="30" r="2" fill="#ffdb4d" opacity="0.2" />
      <circle cx="30" cy="30" r="2" fill="#ffdb4d" opacity="0.2" />
      <circle cx="50" cy="30" r="2" fill="#ffdb4d" opacity="0.2" />
      <circle cx="70" cy="30" r="2" fill="#ffdb4d" opacity="0.2" />
      <circle cx="90" cy="30" r="2" fill="#ffdb4d" opacity="0.2" />
      
      <circle cx="10" cy="50" r="2" fill="#ffdb4d" opacity="0.2" />
      <circle cx="30" cy="50" r="2" fill="#ffdb4d" opacity="0.2" />
      <circle cx="50" cy="50" r="2" fill="#ffdb4d" opacity="0.2" />
      <circle cx="70" cy="50" r="2" fill="#ffdb4d" opacity="0.2" />
      <circle cx="90" cy="50" r="2" fill="#ffdb4d" opacity="0.2" />
      
      <circle cx="10" cy="70" r="2" fill="#ffdb4d" opacity="0.2" />
      <circle cx="30" cy="70" r="2" fill="#ffdb4d" opacity="0.2" />
      <circle cx="50" cy="70" r="2" fill="#ffdb4d" opacity="0.2" />
      <circle cx="70" cy="70" r="2" fill="#ffdb4d" opacity="0.2" />
      <circle cx="90" cy="70" r="2" fill="#ffdb4d" opacity="0.2" />
      
      <circle cx="10" cy="90" r="2" fill="#ffdb4d" opacity="0.2" />
      <circle cx="30" cy="90" r="2" fill="#ffdb4d" opacity="0.2" />
      <circle cx="50" cy="90" r="2" fill="#ffdb4d" opacity="0.2" />
      <circle cx="70" cy="90" r="2" fill="#ffdb4d" opacity="0.2" />
      <circle cx="90" cy="90" r="2" fill="#ffdb4d" opacity="0.2" />
      
      <path d="M20,20 L40,40 M60,60 L80,80" stroke="#ffdb4d" stroke-width="0.5" opacity="0.3" />
      <path d="M80,20 L60,40 M40,60 L20,80" stroke="#ffdb4d" stroke-width="0.5" opacity="0.3" />
    </pattern>
  </defs>
  
  <rect width="100%" height="100%" fill="url(#crypto-pattern)" />
</svg> 